# xmcd
#
# Track frame offsets:
#	150
#	13965
#	28942
#	42557
#	58067
#	67100
#	79795
#	92892
#	105515
#	117265
#
# Disc length: 1753 seconds
#
# Revision: 0
# Processed by: cddbd v1.5.2PL0 Copyright (c) Steve Scherf et al.
# Submitted via: audiograbber 1.83.01
#
DISCID=8c06d70a
DTITLE=Leo Dan - Tesoros De Coleccion 3.3
DYEAR=1985
DGENRE=Ranchera
TTITLE0=Esa Pared
TTITLE1=Me Quedo La Costumbre
TTITLE2=Fueron Tres Años
TTITLE3=No Quiero Ser
TTITLE4=Pero Mi Corazon No
TTITLE5=Por Tu Amor
TTITLE6=Sin Decirte Adios
TTITLE7=Tu Solamente Eres Tu
TTITLE8=Yo Se
TTITLE9=La Mariana
EXTD=MS®
EXTT0=MS®
EXTT1=
EXTT2=
EXTT3=
EXTT4=
EXTT5=
EXTT6=
EXTT7=
EXTT8=
EXTT9=
PLAYORDER=
